DBRep_DrawableShape

CASCADE Topology V3, (c) Open Cascade
Locations 0
Curve2ds 62
1 2.1181540000000001 0 0 -1 
1 0 0 0 1 
8 0 2.1181540000000001
1 0 -2.6599999999999997 1 0 
8 0 2.1181540000000001
1 0 2.3799999999999994 1 0 
1 0 0 0 -1 
1 0 0 0 1 
1 0 0 1 0 
1 0 0 1 0 
8 -6.5868400000000005 -1.1899999999999999
1 -1.1899999999999999 2.6599999999999997 -1 0 
8 -6.5868400000000005 -1.1899999999999999
1 2.1181540000000001 1.1899999999999995 0 -1 
8 1.3300000000000001 4.7161010000000001
1 5.396840000000001 1.3299999999999998 0 1 
8 1.3300000000000001 4.7161010000000001
1 2.1181540000000001 1.3300000000000001 0 -1 
8 -6.5868400000000005 -1.1899999999999999
1 -1.1899999999999999 6.0461010000000002 -1 0 
8 -6.5868400000000005 -1.1899999999999999
1 2.1181540000000001 1.1899999999999995 0 -1 
1 2.1181540000000001 0 0 1 
1 0 7 1 0 
1 2.1181540000000001 0 0 -1 
1 5.5999999999999996 0 0 1 
1 2.1181540000000001 0 0 1 
1 0 0 1 0 
1 0 0 0 1 
1 0 0 1 0 
1 -2.3799999999999994 2.6599999999999997 1 0 
1 0 0 1 0 
1 0 7.77684 1 0 
1 0 0 0 -1 
1 7.77684 0 0 1 
1 5.396840000000001 2.6599999999999997 0 1 
1 0 0 0 1 
1 0 3.386101 1 0 
1 -2.3799999999999994 6.0461010000000002 1 0 
1 0 0 0 1 
1 0 7 1 0 
1 0 0 0 -1 
1 5.5999999999999996 0 0 1 
1 0 0 0 1 
1 0 0 1 0 
1 0 0 1 0 
1 0 5.5999999999999996 1 0 
1 0 -3.386101 1 0 
1 0 7.77684 1 0 
8 0 2.1181540000000001
1 0 -6.0461010000000002 1 0 
8 0 2.1181540000000001
1 0 2.3799999999999994 1 0 
1 0 -7 1 0 
1 0 0 1 0 
1 0 -7 1 0 
1 0 5.5999999999999996 1 0 
1 2.3799999999999994 -2.6599999999999997 0 1 
1 0 0 1 0 
1 0 0 1 0 
1 2.401392 0 0 -1 
1 0 0 0 1 
1 0 -3.386101 1 0 
1 0 0 1 0 
1 0 0 0 -1 
1 0 0 0 1 
1 2.401392 0 0 1 
1 0 0 1 0 
1 2.401392 0 0 1 
1 0 3.386101 1 0 
1 2.401392 0 0 -1 
1 7.77684 0 0 1 
Curves 29
1 -3.2200000000000002 -2.7999999999999998 2.1181540000000001 -0 1 0 
1 -3.2200000000000002 -0.14000000000000007 0 0 0 1 
1 -3.2200000000000002 -2.7999999999999998 0 -0 1 0 
1 -3.2200000000000002 -2.7999999999999998 0 0 0 1 
1 -4.4100000000000001 -0.14000000000000007 2.1181540000000001 -1 -0 0 
1 2.1768400000000003 -1.47 2.1181540000000001 -0 1 0 
1 -4.4100000000000001 3.2461010000000003 2.1181540000000001 -1 -0 0 
1 -3.2200000000000002 4.2000000000000002 2.1181540000000001 1 0 -0 
1 2.3799999999999994 -2.7999999999999998 2.1181540000000001 -0 1 0 
1 -3.2200000000000002 -2.7999999999999998 2.1181540000000001 1 0 -0 
1 -5.5999999999999996 -0.14000000000000001 0 1 0 -0 
1 2.1768400000000003 -0.14000000000000001 0 0 0 1 
1 2.1768400000000003 -0.14000000000000001 0 -0 1 0 
1 -5.5999999999999996 3.2461009999999999 0 1 0 -0 
1 -3.2200000000000002 4.2000000000000002 0 1 0 -0 
1 2.3799999999999994 -2.7999999999999998 0 -0 1 0 
1 -3.2200000000000002 -2.7999999999999998 0 1 0 -0 
1 2.3799999999999994 -2.7999999999999998 0 0 0 1 
1 2.1768400000000003 3.2461009999999999 0 0 0 1 
1 -3.2200000000000002 3.2461010000000003 0 0 0 1 
1 -3.2200000000000002 4.2000000000000002 0 0 0 1 
1 2.3799999999999994 4.2000000000000002 0 0 0 1 
1 -5.5999999999999996 -0.14000000000000001 0 0 0 1 
1 -5.5999999999999996 -0.14000000000000001 2.401392 -0 1 0 
1 -5.5999999999999996 3.2461009999999999 0 0 0 1 
1 -5.5999999999999996 -0.14000000000000001 0 -0 1 0 
1 -5.5999999999999996 -0.14000000000000001 2.401392 1 0 -0 
1 -5.5999999999999996 3.2461009999999999 2.401392 1 0 -0 
1 2.1768400000000003 -0.14000000000000001 2.401392 -0 1 0 
Polygon3D 0
PolygonOnTriangulations 0
Surfaces 12
1 -3.2200000000000002 -2.7999999999999998 0 1 0 -0 0 0 1 0 -1 0 
1 -3.2200000000000002 -2.7999999999999998 2.1181540000000001 0 0 1 1 0 -0 -0 1 0 
1 -5.5999999999999996 -0.14000000000000001 0 -0 1 0 0 0 1 1 0 -0 
1 -3.2200000000000002 -2.7999999999999998 0 0 0 1 1 0 -0 -0 1 0 
1 -3.2200000000000002 -2.7999999999999998 0 -0 1 0 0 0 1 1 0 -0 
1 2.1768400000000003 -0.14000000000000001 0 1 0 -0 0 0 1 0 -1 0 
1 -5.5999999999999996 3.2461009999999999 0 -0 1 0 0 0 1 1 0 -0 
1 -3.2200000000000002 4.2000000000000002 0 -0 1 0 0 0 1 1 0 -0 
1 2.3799999999999994 -2.7999999999999998 0 1 0 -0 0 0 1 0 -1 0 
1 -5.5999999999999996 -0.14000000000000001 0 0 0 1 1 0 -0 -0 1 0 
1 -5.5999999999999996 -0.14000000000000001 0 1 0 -0 0 0 1 0 -1 0 
1 -5.5999999999999996 -0.14000000000000001 2.401392 0 0 1 1 0 -0 -0 1 0 
Triangulations 0

TShapes 106
Ve
1e-07
-3.22 -2.8 2.118154
0 0

0101101
*
Ve
0.000500100000000055
-3.22 -0.14 2.118154
0 0

0101101
*
Ed
 1e-07 1 1 0
1  1 0 0 2.66
2  1 1 0 0 2.66
2  2 2 0 0 2.66
0

0101000
+106 0 -105 0 *
Ve
0.0005001
-3.22 -0.14 0
0 0

0101101
*
Ed
 0.0005001 1 1 0
1  2 0 0 2.118154
2  3 1 0 0 2.118154
2  4 3 0 0 2.118154
0

0101000
+103 0 -105 0 *
Ve
1e-07
-3.22 -2.8 0
0 0

0101101
*
Ed
 1e-07 1 1 0
1  3 0 0 2.66
2  5 1 0 0 2.66
2  6 4 0 0 2.66
0

0101000
+101 0 -103 0 *
Ed
 1e-07 1 1 0
1  4 0 0 2.118154
2  7 1 0 0 2.118154
2  8 5 0 0 2.118154
0

0101000
-106 0 +101 0 *
Wi

0101100
-104 0 +102 0 +100 0 -99 0 *
Fa
0  1e-07 1 0

0101000
+98 0 *
Ve
0.000500100000000111
2.17684 -0.14 2.118154
0 0

0101101
*
Ed
 0.0005001 1 1 0
1  5 0 -6.58684 -1.19
2  9 2 0 -6.58684 -1.19
2  10 3 0 -6.58684 -1.19
0

0101000
+96 0 -105 0 *
Ve
0.000500100000000444
2.17684 3.246101 2.118154
0 0

0101101
*
Ed
 0.0005001 1 1 0
1  6 0 1.33 4.716101
2  11 2 0 1.33 4.716101
2  12 6 0 1.33 4.716101
0

0101000
+96 0 -94 0 *
Ve
0.0005001
-3.22 3.246101 2.118154
0 0

0101101
*
Ed
 0.0005001 1 1 0
1  7 0 -6.58684 -1.19
2  13 2 0 -6.58684 -1.19
2  14 7 0 -6.58684 -1.19
0

0101000
+94 0 -92 0 *
Ve
1e-07
-3.22 4.2 2.118154
0 0

0101101
*
Ed
 1e-07 1 1 0
1  1 0 6.046101 7
2  1 1 0 6.046101 7
2  2 2 0 6.046101 7
0

0101000
+92 0 -90 0 *
Ve
1e-07
2.38 4.2 2.118154
0 0

0101101
*
Ed
 1e-07 1 1 0
1  8 0 0 5.6
2  15 8 0 0 5.6
2  16 2 0 0 5.6
0

0101000
-88 0 +90 0 *
Ve
1e-07
2.38 -2.8 2.118154
0 0

0101101
*
Ed
 1e-07 1 1 0
1  9 0 0 7
2  17 9 0 0 7
2  18 2 0 0 7
0

0101000
-88 0 +86 0 *
Ed
 1e-07 1 1 0
1  10 0 0 5.6
2  19 5 0 0 5.6
2  20 2 0 0 5.6
0

0101000
-86 0 +106 0 *
Wi

0101100
-104 0 +95 0 -93 0 -91 0 -89 0 -87 0 +85 0 +84 0 *
Fa
0  1e-07 2 0

0101000
+83 0 *
Ve
1e-07
2.17684 -0.14 0
0 0

0101101
*
Ed
 1e-07 1 1 0
1  11 0 2.38 7.77684
2  21 3 0 2.38 7.77684
2  22 10 0 2.38 7.77684
2  23 4 0 2.38 7.77684
0

0101000
+103 0 -81 0 *
Ed
 1e-07 1 1 0
1  12 0 0 2.118154
2  24 6 0 0 2.118154
2  25 3 0 0 2.118154
0

0101000
+81 0 -96 0 *
Wi

0101100
-80 0 -79 0 -95 0 +102 0 *
Fa
0  1e-07 3 0

0101000
+78 0 *
Ve
1e-07
2.17684 3.246101 0
0 0

0101101
*
Ed
 1e-07 1 1 0
1  13 0 0 3.386101
2  26 6 0 0 3.386101
2  27 10 0 0 3.386101
2  28 4 0 0 3.386101
0

0101000
-76 0 +81 0 *
Ve
0.0005001
-3.22 3.246101 0
0 0

0101101
*
Ed
 1e-07 1 1 0
1  14 0 2.38 7.77684
2  29 7 0 2.38 7.77684
2  30 10 0 2.38 7.77684
2  31 4 0 2.38 7.77684
0

0101000
+74 0 -76 0 *
Ve
1e-07
-3.22 4.2 0
0 0

0101101
*
Ed
 1e-07 1 1 0
1  3 0 6.046101 7
2  5 1 0 6.046101 7
2  6 4 0 6.046101 7
0

0101000
+74 0 -72 0 *
Ve
1e-07
2.38 4.2 0
0 0

0101101
*
Ed
 1e-07 1 1 0
1  15 0 0 5.6
2  32 8 0 0 5.6
2  33 4 0 0 5.6
0

0101000
-70 0 +72 0 *
Ve
1e-07
2.38 -2.8 0
0 0

0101101
*
Ed
 1e-07 1 1 0
1  16 0 0 7
2  34 9 0 0 7
2  35 4 0 0 7
0

0101000
-70 0 +68 0 *
Ed
 1e-07 1 1 0
1  17 0 0 5.6
2  36 5 0 0 5.6
2  37 4 0 0 5.6
0

0101000
-68 0 +101 0 *
Wi

0101100
-100 0 -80 0 -75 0 +73 0 -71 0 -69 0 +67 0 +66 0 *
Fa
0  1e-07 4 0

0101000
+65 0 *
Ed
 1e-07 1 1 0
1  18 0 0 2.118154
2  38 9 0 0 2.118154
2  39 5 0 0 2.118154
0

0101000
-86 0 +68 0 *
Wi

0101100
-66 0 -63 0 +84 0 +99 0 *
Fa
0  1e-07 5 0

0101000
+62 0 *
Ed
 1e-07 1 1 0
1  19 0 0 2.118154
2  40 6 0 0 2.118154
2  41 7 0 0 2.118154
0

0101000
+76 0 -94 0 *
Wi

0101100
-79 0 -93 0 +60 0 +75 0 *
Fa
0  1e-07 6 0

0101000
+59 0 *
Ed
 0.0005001 1 1 0
1  20 0 0 2.118154
2  42 1 0 0 2.118154
2  43 7 0 0 2.118154
0

0101000
+74 0 -92 0 *
Wi

0101100
-73 0 -60 0 -91 0 +57 0 *
Fa
0  1e-07 7 0

0101000
+56 0 *
Ed
 1e-07 1 1 0
1  21 0 0 2.118154
2  44 1 0 0 2.118154
2  45 8 0 0 2.118154
0

0101000
-90 0 +72 0 *
Wi

0101100
-89 0 +54 0 +71 0 -57 0 *
Fa
0  1e-07 1 0

0101000
+53 0 *
Ed
 1e-07 1 1 0
1  22 0 0 2.118154
2  46 9 0 0 2.118154
2  47 8 0 0 2.118154
0

0101000
-88 0 +70 0 *
Wi

0101100
-69 0 -51 0 +87 0 +54 0 *
Fa
0  1e-07 8 0

0101000
+50 0 *
Wi

0101100
-63 0 -85 0 +51 0 +67 0 *
Fa
0  1e-07 9 0

0101000
+48 0 *
Sh

0101100
-97 0 +82 0 +77 0 -64 0 -61 0 -58 0 -55 0 -52 0 +49 0 +47 0 
*
So

0100000
+46 0 *
Ed
 1e-07 1 1 0
1  1 0 2.66 6.046101
2  1 1 0 2.66 6.046101
2  2 2 0 2.66 6.046101
0

0101000
+105 0 -92 0 *
Ed
 1e-07 1 1 0
1  3 0 2.66 6.046101
2  5 1 0 2.66 6.046101
2  6 4 0 2.66 6.046101
2  48 10 0 2.66 6.046101
0

0101000
+103 0 -74 0 *
Wi

0101100
-44 0 +57 0 +43 0 -102 0 *
Fa
0  1e-07 1 0

0101000
+42 0 *
Wi

0101100
-44 0 +91 0 +93 0 -95 0 *
Fa
0  1e-07 2 0

0101000
+40 0 *
Wi

0101100
-43 0 -73 0 +75 0 +80 0 *
Fa
0  1e-07 4 0

0101000
+38 0 *
Sh

0101100
-41 0 +39 0 +55 0 -37 0 -77 0 +58 0 *
So

0100000
+36 0 *
Co

0100000
+45 0 +35 0 *
Ve
1e-07
-5.6 -0.14 2.401392
0 0

0101101
*
Ve
1e-07
-5.6 -0.14 0
0 0

0101101
*
Ed
 1e-07 1 1 0
1  23 0 0 2.401392
2  49 11 0 0 2.401392
2  50 3 0 0 2.401392
0

0101000
-33 0 +32 0 *
Ve
1e-07
-5.6 3.246101 2.401392
0 0

0101101
*
Ed
 1e-07 1 1 0
1  24 0 0 3.386101
2  51 11 0 0 3.386101
2  52 12 0 0 3.386101
0

0101000
-30 0 +33 0 *
Ve
1e-07
-5.6 3.246101 0
0 0

0101101
*
Ed
 1e-07 1 1 0
1  25 0 0 2.401392
2  53 11 0 0 2.401392
2  54 7 0 0 2.401392
0

0101000
-30 0 +28 0 *
Ed
 1e-07 1 1 0
1  26 0 0 3.386101
2  55 11 0 0 3.386101
2  56 10 0 0 3.386101
0

0101000
-28 0 +32 0 *
Wi

0101100
-31 0 -29 0 +27 0 +26 0 *
Fa
0  1e-07 11 0

0101000
+25 0 *
Ed
 1e-07 1 1 0
1  11 0 0 2.38
2  21 3 0 0 2.38
2  22 10 0 0 2.38
0

0101000
+32 0 -103 0 *
Ve
1e-07
2.17684 -0.14 2.401392
0 0

0101101
*
Ed
 1e-07 1 1 0
1  12 0 2.118154 2.401392
2  24 6 0 2.118154 2.401392
2  25 3 0 2.118154 2.401392
0

0101000
+96 0 -22 0 *
Ed
 1e-07 1 1 0
1  27 0 0 7.77684
2  57 3 0 0 7.77684
2  58 12 0 0 7.77684
0

0101000
-22 0 +33 0 *
Wi

0101100
-23 0 -102 0 +95 0 -21 0 +20 0 +31 0 *
Fa
0  1e-07 3 0

0101000
+19 0 *
Ve
1e-07
2.17684 3.246101 2.401392
0 0

0101101
*
Ed
 1e-07 1 1 0
1  28 0 0 7.77684
2  59 7 0 0 7.77684
2  60 12 0 0 7.77684
0

0101000
-17 0 +30 0 *
Ed
 1e-07 1 1 0
1  29 0 0 3.386101
2  61 6 0 0 3.386101
2  62 12 0 0 3.386101
0

0101000
-17 0 +22 0 *
Wi

0101100
-29 0 -16 0 +15 0 +20 0 *
Fa
0  1e-07 12 0

0101000
+14 0 *
Ed
 1e-07 1 1 0
1  14 0 0 2.38
2  29 7 0 0 2.38
2  30 10 0 0 2.38
0

0101000
+28 0 -74 0 *
Ed
 1e-07 1 1 0
1  19 0 2.118154 2.401392
2  40 6 0 2.118154 2.401392
2  41 7 0 2.118154 2.401392
0

0101000
+94 0 -17 0 *
Wi

0101100
-12 0 -57 0 +91 0 -11 0 +16 0 +27 0 *
Fa
0  1e-07 7 0

0101000
+10 0 *
Wi

0101100
-12 0 +43 0 +23 0 -26 0 *
Fa
0  1e-07 10 0

0101000
+8 0 *
Wi

0101100
-21 0 -15 0 +11 0 +93 0 *
Fa
0  1e-07 6 0

0101000
+6 0 *
Sh

0101100
-24 0 -18 0 +13 0 +9 0 -7 0 +41 0 -39 0 +5 0 *
So

0100000
+4 0 *
Co

0100000
+3 0 +35 0 *
Co

1100000
+34 0 +2 0 *

+1 0 