DBRep_DrawableShape

CASCADE Topology V3, (c) Open Cascade
Locations 0
Curve2ds 32
1 2.1181540000000001 0 0 -1 
1 0 0 0 1 
8 0 2.1181540000000001
1 0 -2.7999999999999998 1 0 
8 0 2.1181540000000001
1 0 -3.2200000000000002 1 0 
1 0 0 0 -1 
1 0 0 0 1 
1 0 0 1 0 
1 0 0 1 0 
8 -3.9899999999999993 1.6100000000000001
1 1.6100000000000001 2.7999999999999998 -1 0 
8 -3.9899999999999993 1.6100000000000001
1 2.1181540000000001 -1.6100000000000001 0 -1 
1 2.1181540000000001 0 0 -1 
1 5.5999999999999996 0 0 1 
1 2.1181540000000001 0 0 1 
1 0 0 1 0 
8 -3.9899999999999993 1.6100000000000001
1 1.6100000000000001 2.7999999999999998 -1 0 
8 -3.9899999999999993 1.6100000000000001
1 0 -1.6100000000000001 0 -1 
8 0 2.1181540000000001
1 0 -2.7999999999999998 1 0 
8 0 2.1181540000000001
1 0 2.3799999999999994 1 0 
1 0 0 0 -1 
1 5.5999999999999996 0 0 1 
1 0 0 0 1 
1 0 0 1 0 
1 0 0 1 0 
1 0 5.5999999999999996 1 0 
1 0 -7 1 0 
1 0 0 1 0 
1 2.1181540000000001 0 0 1 
1 0 7 1 0 
1 0 0 0 1 
1 0 7 1 0 
1 0 -7 1 0 
1 0 5.5999999999999996 1 0 
Curves 16
1 -3.2200000000000002 -2.7999999999999998 2.1181540000000001 -0 1 0 
1 -3.2200000000000002 0 0 0 -0 1 
1 -3.2200000000000002 -2.7999999999999998 0 -0 1 0 
1 -3.2200000000000002 -2.7999999999999998 0 0 0 1 
1 -1.6100000000000001 0 2.1181540000000001 -1 0 0 
1 2.3799999999999994 -2.7999999999999998 2.1181540000000001 -0 1 0 
1 -3.2200000000000002 -2.7999999999999998 2.1181540000000001 1 0 -0 
1 -1.6100000000000001 0 0 -1 0 0 
1 2.3799999999999994 0 0 0 -0 1 
1 2.3799999999999994 -2.7999999999999998 0 -0 1 0 
1 -3.2200000000000002 -2.7999999999999998 0 1 0 -0 
1 2.3799999999999994 -2.7999999999999998 0 0 0 1 
1 -3.2200000000000002 4.2000000000000002 0 0 0 1 
1 -3.2200000000000002 4.2000000000000002 2.1181540000000001 1 0 -0 
1 -3.2200000000000002 4.2000000000000002 0 1 0 -0 
1 2.3799999999999994 4.2000000000000002 0 0 0 1 
Polygon3D 0
PolygonOnTriangulations 0
Surfaces 7
1 -3.2200000000000002 -2.7999999999999998 0 1 0 -0 0 0 1 0 -1 0 
1 -3.2200000000000002 -2.7999999999999998 2.1181540000000001 0 0 1 1 0 -0 -0 1 0 
1 0 0 0 0 1 0 0 -0 1 1 0 -0 
1 -3.2200000000000002 -2.7999999999999998 0 0 0 1 1 0 -0 -0 1 0 
1 -3.2200000000000002 -2.7999999999999998 0 -0 1 0 0 0 1 1 0 -0 
1 2.3799999999999994 -2.7999999999999998 0 1 0 -0 0 0 1 0 -1 0 
1 -3.2200000000000002 4.2000000000000002 0 -0 1 0 0 0 1 1 0 -0 
Triangulations 0

TShapes 59
Ve
1e-07
-3.22 -2.8 2.118154
0 0

0101101
*
Ve
1.5e-07
-3.22 0 2.118154
0 0

0101101
*
Ed
 1e-07 1 1 0
1  1 0 0 2.8
2  1 1 0 0 2.8
2  2 2 0 0 2.8
0

0101000
+59 0 -58 0 *
Ve
1.5e-07
-3.22 0 0
0 0

0101101
*
Ed
 1.5e-07 1 1 0
1  2 0 0 2.118154
2  3 1 0 0 2.118154
2  4 3 0 0 2.118154
0

0101000
+56 0 -58 0 *
Ve
1e-07
-3.22 -2.8 0
0 0

0101101
*
Ed
 1e-07 1 1 0
1  3 0 0 2.8
2  5 1 0 0 2.8
2  6 4 0 0 2.8
0

0101000
+54 0 -56 0 *
Ed
 1e-07 1 1 0
1  4 0 0 2.118154
2  7 1 0 0 2.118154
2  8 5 0 0 2.118154
0

0101000
-59 0 +54 0 *
Wi

0101100
-57 0 +55 0 +53 0 -52 0 *
Fa
0  1e-07 1 0

0101000
+51 0 *
Ve
1.50000000444089e-07
2.38 0 2.118154
0 0

0101101
*
Ed
 1.5e-07 1 1 0
1  5 0 -3.99 1.61
2  9 2 0 -3.99 1.61
2  10 3 0 -3.99 1.61
0

0101000
+49 0 -58 0 *
Ve
1e-07
2.38 -2.8 2.118154
0 0

0101101
*
Ed
 1e-07 1 1 0
1  6 0 0 2.8
2  11 6 0 0 2.8
2  12 2 0 0 2.8
0

0101000
+47 0 -49 0 *
Ed
 1e-07 1 1 0
1  7 0 0 5.6
2  13 5 0 0 5.6
2  14 2 0 0 5.6
0

0101000
-47 0 +59 0 *
Wi

0101100
-57 0 +48 0 +46 0 +45 0 *
Fa
0  1e-07 2 0

0101000
+44 0 *
Ve
1.50000000444089e-07
2.38 0 0
0 0

0101101
*
Ed
 1.5e-07 1 1 0
1  8 0 -3.99 1.61
2  15 4 0 -3.99 1.61
2  16 3 0 -3.99 1.61
0

0101000
+42 0 -56 0 *
Ed
 1.5e-07 1 1 0
1  9 0 0 2.118154
2  17 6 0 0 2.118154
2  18 3 0 0 2.118154
0

0101000
+42 0 -49 0 *
Wi

0101100
+41 0 -40 0 -48 0 +55 0 *
Fa
0  1e-07 3 0

0101000
+39 0 *
Ve
1e-07
2.38 -2.8 0
0 0

0101101
*
Ed
 1e-07 1 1 0
1  10 0 0 2.8
2  19 6 0 0 2.8
2  20 4 0 0 2.8
0

0101000
+37 0 -42 0 *
Ed
 1e-07 1 1 0
1  11 0 0 5.6
2  21 5 0 0 5.6
2  22 4 0 0 5.6
0

0101000
-37 0 +54 0 *
Wi

0101100
-53 0 +41 0 +36 0 +35 0 *
Fa
0  1e-07 4 0

0101000
+34 0 *
Ed
 1e-07 1 1 0
1  12 0 0 2.118154
2  23 6 0 0 2.118154
2  24 5 0 0 2.118154
0

0101000
-47 0 +37 0 *
Wi

0101100
-35 0 -32 0 +45 0 +52 0 *
Fa
0  1e-07 5 0

0101000
+31 0 *
Wi

0101100
-46 0 +40 0 +36 0 -32 0 *
Fa
0  1e-07 6 0

0101000
+29 0 *
Sh

0101100
-50 0 +43 0 +38 0 -33 0 -30 0 +28 0 *
So

0100000
+27 0 *
Ve
1e-07
-3.22 4.2 2.118154
0 0

0101101
*
Ed
 1e-07 1 1 0
1  1 0 2.8 7
2  1 1 0 2.8 7
2  2 2 0 2.8 7
0

0101000
+58 0 -25 0 *
Ve
1e-07
-3.22 4.2 0
0 0

0101101
*
Ed
 1e-07 1 1 0
1  13 0 0 2.118154
2  25 1 0 0 2.118154
2  26 7 0 0 2.118154
0

0101000
-25 0 +23 0 *
Ed
 1e-07 1 1 0
1  3 0 2.8 7
2  5 1 0 2.8 7
2  6 4 0 2.8 7
0

0101000
+56 0 -23 0 *
Wi

0101100
-24 0 +22 0 +21 0 -55 0 *
Fa
0  1e-07 1 0

0101000
+20 0 *
Ve
1e-07
2.38 4.2 2.118154
0 0

0101101
*
Ed
 1e-07 1 1 0
1  14 0 0 5.6
2  27 7 0 0 5.6
2  28 2 0 0 5.6
0

0101000
-18 0 +25 0 *
Ed
 1e-07 1 1 0
1  6 0 2.8 7
2  11 6 0 2.8 7
2  12 2 0 2.8 7
0

0101000
+49 0 -18 0 *
Wi

0101100
-24 0 -17 0 +16 0 -48 0 *
Fa
0  1e-07 2 0

0101000
+15 0 *
Ve
1e-07
2.38 4.2 0
0 0

0101101
*
Ed
 1e-07 1 1 0
1  15 0 0 5.6
2  29 7 0 0 5.6
2  30 4 0 0 5.6
0

0101000
-13 0 +23 0 *
Ed
 1e-07 1 1 0
1  16 0 0 2.118154
2  31 6 0 0 2.118154
2  32 7 0 0 2.118154
0

0101000
-18 0 +13 0 *
Wi

0101100
-12 0 -11 0 +17 0 +22 0 *
Fa
0  1e-07 7 0

0101000
+10 0 *
Ed
 1e-07 1 1 0
1  10 0 2.8 7
2  19 6 0 2.8 7
2  20 4 0 2.8 7
0

0101000
+42 0 -13 0 *
Wi

0101100
-21 0 -12 0 +8 0 -41 0 *
Fa
0  1e-07 4 0

0101000
+7 0 *
Wi

0101100
-16 0 +11 0 +8 0 -40 0 *
Fa
0  1e-07 6 0

0101000
+5 0 *
Sh

0101100
-19 0 +14 0 +9 0 -6 0 -38 0 +4 0 *
So

0100000
+3 0 *
Co

0100000
+26 0 +2 0 *

+1 0 