DBRep_DrawableShape

CASCADE Topology V3, (c) Open Cascade
Locations 0
Curve2ds 12
1 0 0 1 0 
8 0 3.1622776601683795
1 6.2831853071795862 0 0 1 
1 0 0 0 1 
1 0 3.1622776601683795 1 0 
8 0 6.2831853071795862
1 0 0 1 0 
8 0 2.8284271247461903
1 6.2831853071795862 0 0 1 
1 0 0 0 1 
1 0 2.8284271247461903 1 0 
8 0 6.2831853071795862
1 0 0 1 0 
8 0 2.2360679774997898
1 6.2831853071795862 0 0 1 
1 0 0 0 1 
1 0 2.2360679774997898 1 0 
Curves 7
2 0 0 0 0 0 1 1 0 0 0 1 0 2
1 2 0 0 0.316227766016838 0 0.94868329805051388 
2 1.0000000000000002 0 3.0000000000000004 0 0 1 1 0 0 0 1 0 2
1 3.0000000000000004 0 3 -0.70710678118654757 0 0.70710678118654757 
2 -1.0000000000000004 0 5 5.5511151231257827e-17 -0 1 1 0 -5.5511151231257827e-17 0 1 0 2.0000000000000004
1 1 0 5 0.44721359549995798 0 0.89442719099991597 
2 2.2204460492503131e-16 0 7 0 0 1 1 0 0 0 1 0 2
Polygon3D 0
PolygonOnTriangulations 0
Surfaces 5
1 -1.2819751242557095e-16 3.8218883405570515e-18 0 0 0 1 1 0 0 0 1 0 
10 0 6.2831853071795862 0 3.1622776601683795
6 0.316227766016838 0 0.94868329805051388 
2 0 0 0 0 0 1 1 0 0 0 1 0 2
10 0 6.2831853071795862 0 2.8284271247461903
6 -0.70710678118654757 0 0.70710678118654757 
2 1 0 3 5.5511151231257827e-17 -0 1 1 0 -5.5511151231257827e-17 0 1 0 2.0000000000000004
10 0 6.2831853071795862 0 2.2360679774997898
6 0.44721359549995798 0 0.89442719099991597 
2 -1 0 5 0 0 1 1 0 0 0 1 0 2
1 -1.2819751242557095e-16 3.8218883405570515e-18 7 0 0 1 1 0 0 0 1 0 
Triangulations 0

TShapes 23
Ve
1.00005e-07
2 -4.89858719658941e-16 0
0 0

0101101
*
Ed
 1.00005e-07 1 1 0
1  1 0 0 6.28318530717959
2  1 2 0 0 6.28318530717959
0

0101000
+23 0 -23 0 *
Wi

1101100
+22 0 *
Fa
0  1e-07 1 0

0101000
+21 0 *
Ve
1e-07
3 0 3
0 0

0101101
*
Ed
 1e-07 1 1 0
1  2 0 0 3.16227766016838
3  2 3G1 2 0 0 3.16227766016838
0

0101000
+23 0 -19 0 *
Ed
 1e-07 1 1 0
1  3 0 0 6.28318530717959
2  4 2 0 0 6.28318530717959
2  5 3 0 0 6.28318530717959
4 C0 3 0 2 0
0

0101000
+19 0 -19 0 *
Wi

0101100
+18 0 +22 0 -18 0 -17 0 *
Fa
0  1e-07 2 0

0101000
+16 0 *
Ve
1e-07
1 0 5
0 0

0101101
*
Ed
 1e-07 1 1 0
1  4 0 0 2.82842712474619
3  6 7G1 3 0 0 2.82842712474619
0

0101000
+19 0 -14 0 *
Ed
 1e-07 1 1 0
1  5 0 0 6.28318530717959
2  8 3 0 0 6.28318530717959
2  9 4 0 0 6.28318530717959
4 C0 4 0 3 0
0

0101000
+14 0 -14 0 *
Wi

0101100
+13 0 +17 0 -13 0 -12 0 *
Fa
0  1e-07 3 0

0101000
+11 0 *
Ve
1.00005e-07
2 -4.89858719658941e-16 7
0 0

0101101
*
Ed
 1e-07 1 1 0
1  6 0 0 2.23606797749979
3  10 11G1 4 0 0 2.23606797749979
0

0101000
+14 0 -9 0 *
Ed
 1.00005e-07 1 1 0
1  7 0 0 6.28318530717959
2  12 4 0 0 6.28318530717959
0

0101000
+9 0 -9 0 *
Wi

0101100
+8 0 +12 0 -8 0 -7 0 *
Fa
0  1e-07 4 0

0101000
+6 0 *
Wi

1101100
+7 0 *
Fa
0  1e-07 5 0

0101000
+4 0 *
Sh

0101100
-20 0 +15 0 +10 0 +5 0 +3 0 *
So

1100000
+2 0 *

+1 0 