DBRep_DrawableShape

CASCADE Topology V3, (c) Open Cascade
Locations 0
Curve2ds 0
Curves 12
1 43.219999999999999 -2.7999999999999998 0 -0 -0 1 
1 43.219999999999999 -2.7999999999999998 2.1181540000000001 -0 1 -0 
1 43.219999999999999 4.2000000000000002 0 -0 -0 1 
1 43.219999999999999 -2.7999999999999998 0 -0 1 -0 
1 37.619999999999997 -2.7999999999999998 0 -0 -0 1 
1 37.619999999999997 -2.7999999999999998 2.1181540000000001 -0 1 -0 
1 37.619999999999997 4.2000000000000002 0 -0 -0 1 
1 37.619999999999997 -2.7999999999999998 0 -0 1 -0 
1 43.219999999999999 -2.7999999999999998 0 -1 -0 -0 
1 43.219999999999999 -2.7999999999999998 2.1181540000000001 -1 -0 -0 
1 43.219999999999999 4.2000000000000002 0 -1 -0 -0 
1 43.219999999999999 4.2000000000000002 2.1181540000000001 -1 -0 -0 
Polygon3D 0
PolygonOnTriangulations 0
Surfaces 6
1 43.219999999999999 -2.7999999999999998 0 -1 -0 -0 -0 -0 1 -0 -1 -0 
1 37.619999999999997 -2.7999999999999998 0 -1 -0 -0 -0 -0 1 -0 -1 -0 
1 43.219999999999999 -2.7999999999999998 0 -0 1 -0 -0 -0 1 -1 -0 -0 
1 43.219999999999999 4.2000000000000002 0 -0 1 -0 -0 -0 1 -1 -0 -0 
1 43.219999999999999 -2.7999999999999998 0 -0 -0 1 -1 -0 -0 -0 1 -0 
1 43.219999999999999 -2.7999999999999998 2.1181540000000001 -0 -0 1 -1 -0 -0 -0 1 -0 
Triangulations 0

TShapes 35
Ve
1e-07
43.22 -2.8 2.118154
0 0

0101101
*
Ve
1e-07
43.22 -2.8 0
0 0

0101101
*
Ed
 1e-07 1 1 0
1  1 0 0 2.118154
0

0101000
-35 0 +34 0 *
Ve
1e-07
43.22 4.2 2.118154
0 0

0101101
*
Ed
 1e-07 1 1 0
1  2 0 0 7
0

0101000
-32 0 +35 0 *
Ve
1e-07
43.22 4.2 0
0 0

0101101
*
Ed
 1e-07 1 1 0
1  3 0 0 2.118154
0

0101000
-32 0 +30 0 *
Ed
 1e-07 1 1 0
1  4 0 0 7
0

0101000
-30 0 +34 0 *
Wi

0101100
-33 0 -31 0 +29 0 +28 0 *
Fa
0  1e-07 1 0

0101000
+27 0 *
Ve
1e-07
37.62 -2.8 2.118154
0 0

0101101
*
Ve
1e-07
37.62 -2.8 0
0 0

0101101
*
Ed
 1e-07 1 1 0
1  5 0 0 2.118154
0

0101000
-25 0 +24 0 *
Ve
1e-07
37.62 4.2 2.118154
0 0

0101101
*
Ed
 1e-07 1 1 0
1  6 0 0 7
0

0101000
-22 0 +25 0 *
Ve
1e-07
37.62 4.2 0
0 0

0101101
*
Ed
 1e-07 1 1 0
1  7 0 0 2.118154
0

0101000
-22 0 +20 0 *
Ed
 1e-07 1 1 0
1  8 0 0 7
0

0101000
-20 0 +24 0 *
Wi

0101100
-23 0 -21 0 +19 0 +18 0 *
Fa
0  1e-07 2 0

0101000
+17 0 *
Ed
 1e-07 1 1 0
1  9 0 0 5.6
0

0101000
-24 0 +34 0 *
Ed
 1e-07 1 1 0
1  10 0 0 5.6
0

0101000
-25 0 +35 0 *
Wi

0101100
-15 0 -23 0 +14 0 +33 0 *
Fa
0  1e-07 3 0

0101000
+13 0 *
Ed
 1e-07 1 1 0
1  11 0 0 5.6
0

0101000
-20 0 +30 0 *
Ed
 1e-07 1 1 0
1  12 0 0 5.6
0

0101000
-22 0 +32 0 *
Wi

0101100
-11 0 -19 0 +10 0 +29 0 *
Fa
0  1e-07 4 0

0101000
+9 0 *
Wi

0101100
-28 0 -11 0 +18 0 +15 0 *
Fa
0  1e-07 5 0

0101000
+7 0 *
Wi

0101100
-31 0 -10 0 +21 0 +14 0 *
Fa
0  1e-07 6 0

0101000
+5 0 *
Sh

0101100
+26 0 -16 0 +12 0 -8 0 +6 0 -4 0 *
So

0100000
+3 0 *
Co

1100000
+2 0 *

+1 0 