DBRep_DrawableShape

CASCADE Topology V3, (c) Open Cascade
Locations 0
Curve2ds 16
1 0 0 0 1 
1 0 0 1 0 
1 0 1 0.97182531580755016 -0.23570226039551587 
1 0 0 0.97182531580755016 -0.23570226039551587 
1 0 0 0.97182531580755016 0.23570226039551587 
1 0 0 0.97182531580755016 -0.23570226039551587 
1 0 0 0 1 
1 0 1 1 0 
1 0 1 0.97182531580755016 -0.23570226039551587 
1 0 -1 0.97182531580755016 0.23570226039551587 
1 0 0 0.97182531580755016 0.23570226039551587 
1 0 -1 0.97182531580755016 0.23570226039551587 
1 0 0 0 1 
1 0 0 0 -1 
1 1 0 0 1 
1 0 0 0 -1 
Curves 8
1 0 0 0 0 0 1 
1 0 0 1 0.23570226039551587 0.94280904158206347 -0.23570226039551587 
1 0 0 0 0.23570226039551587 0.94280904158206347 0.23570226039551587 
1 1 0 0 0 0 1 
1 1 0 1 -0.23570226039551587 0.94280904158206347 -0.23570226039551587 
1 1 0 0 -0.23570226039551587 0.94280904158206347 0.23570226039551587 
1 0 0 0 1 0 -0 
1 0 0 1 1 0 -0 
Polygon3D 0
PolygonOnTriangulations 0
Surfaces 5
1 0 0 0 0.97014250014533188 -0.24253562503633297 -0 0.24253562503633297 0.97014250014533188 0 0 -0 1 
1 0 0 0 -0 1 0 0 0 1 1 0 -0 
1 0 0 1 0 0.24253562503633297 0.97014250014533188 0 0.97014250014533188 -0.24253562503633297 -1 0 0 
1 0 0 0 0 -0.24253562503633297 0.97014250014533188 0 0.97014250014533188 0.24253562503633297 -1 0 0 
1 1 0 0 0.97014250014533188 0.24253562503633297 0 -0.24253562503633297 0.97014250014533188 0 0 -0 1 
Triangulations 0

TShapes 25
Ve
1e-07
0 0 1
0 0

0101101
*
Ve
1e-07
0 0 0
0 0

0101101
*
Ed
 1e-07 1 1 0
1  1 0 0 1
2  1 1 0 0 1
2  2 2 0 0 1
0

0101000
-25 0 +24 0 *
Ve
1e-07
0.5 2 0.5
0 0

0101101
*
Ed
 1e-07 1 1 0
1  2 0 0 2.12132034355964
2  3 1 0 0 2.12132034355964
2  4 3 0 0 2.12132034355964
0

0101000
-22 0 +25 0 *
Ed
 1e-07 1 1 0
1  3 0 0 2.12132034355964
2  5 1 0 0 2.12132034355964
2  6 4 0 0 2.12132034355964
0

0101000
-22 0 +24 0 *
Wi

0101100
-23 0 -21 0 +20 0 *
Fa
0  1e-07 1 0

0111000
+19 0 *
Ve
1e-07
1 0 1
0 0

0101101
*
Ve
1e-07
1 0 0
0 0

0101101
*
Ed
 1e-07 1 1 0
1  4 0 0 1
2  7 5 0 0 1
2  8 2 0 0 1
0

0101000
-17 0 +16 0 *
Ed
 1e-07 1 1 0
1  5 0 0 2.12132034355964
2  9 5 0 0 2.12132034355964
2  10 3 0 0 2.12132034355964
0

0101000
-22 0 +17 0 *
Ed
 1e-07 1 1 0
1  6 0 0 2.12132034355964
2  11 5 0 0 2.12132034355964
2  12 4 0 0 2.12132034355964
0

0101000
-22 0 +16 0 *
Wi

0101100
-15 0 -14 0 +13 0 *
Fa
0  1e-07 5 0

0111000
+12 0 *
Ed
 1e-07 1 1 0
1  7 0 0 1
2  13 2 0 0 1
2  14 4 0 0 1
0

0101000
-16 0 +24 0 *
Ed
 1e-07 1 1 0
1  8 0 0 1
2  15 2 0 0 1
2  16 3 0 0 1
0

0101000
-17 0 +25 0 *
Wi

0101100
-10 0 -15 0 +9 0 +23 0 *
Fa
0  1e-07 2 0

0111000
+8 0 *
Wi

0101100
-20 0 +13 0 +10 0 *
Fa
0  1e-07 4 0

0111000
+6 0 *
Wi

0101100
-21 0 +14 0 +9 0 *
Fa
0  1e-07 3 0

0111000
+4 0 *
Sh

0101100
-18 0 +11 0 -7 0 -5 0 +3 0 *
So

1100000
+2 0 *

+1 0 