DBRep_DrawableShape

CASCADE Topology V3, (c) Open Cascade
Locations 0
Curve2ds 6
7 0 0  1 2 2  0 1.5707963267948966  6.2831853071795862 1.5707963267948966 
 0 2 6.2831853071795862 2
8 0 6.2831853071795862
7 0 0  1 2 2  0 1.5707963267948966  6.2831853071795862 1.5707963267948966 
 0 2 6.2831853071795862 2
8 4.7123889803846897 7.8539816339744828
7 0 0  2 5 3  6.2831853071795862 -1.5707963267948968  6.2831853071795871 -0.78539816339744839  6.2831853071795862 -2.7204811846010155e-16  6.2831853071795871 0.78539816339744806  6.2831853071795862 1.5707963267948963 
 4.7123889803846897 3 6.2831853071795862 2 7.8539816339744828 3
8 4.7123889803846897 7.8539816339744828
7 0 0  2 5 3  0 -1.5707963267948968  8.8817841970012523e-16 -0.78539816339744839  0 -2.7204811846010155e-16  8.8817841970012523e-16 0.78539816339744806  0 1.5707963267948963 
 4.7123889803846897 3 6.2831853071795862 2 7.8539816339744828 3
7 0 0  1 2 2  0 -1.5707963267948966  6.2831853071795862 -1.5707963267948966 
 0 2 6.2831853071795862 2
8 0 6.2831853071795862
7 0 0  1 2 2  0 -1.5707963267948966  6.2831853071795862 -1.5707963267948966 
 0 2 6.2831853071795862 2
Curves 1
8 4.7123889803846897 7.8539816339744828
7 1 0  2 5 3  -1.8369701987210297e-16 4.4992793479855728e-32 -2  1 0.99999999999999967 -2.4492935982947054e-16 -2.0000000000000004  0.70710678118654757 1 -2.4492935982947064e-16 -4.8985871965894128e-16  1 1.0000000000000002 -2.4492935982947069e-16 1.9999999999999993  0.70710678118654757 3.0616169978683831e-16 -7.4987989133092891e-32 2  1
 4.7123889803846897 3 6.2831853071795862 2 7.8539816339744828 3
Polygon3D 0
PolygonOnTriangulations 0
Surfaces 2
9 1 1 1 0 2 2 6 5 4 3 6.123233995736766e-17 0 -2  1 1 0 -2  0.70710678118654757 1 0 0  1 1 0 2  0.70710678118654757 6.123233995736766e-17 0 2  1 
6.123233995736766e-17 1.0605752387249065e-16 -2  0.5 1 1.7320508075688767 -2  0.35355339059327379 1 1.7320508075688767 0  0.5 1 1.7320508075688767 2  0.35355339059327379 6.123233995736766e-17 1.0605752387249065e-16 2  0.5 
-3.0616169978683818e-17 5.3028761936245346e-17 -2  1 -0.49999999999999978 0.86602540378443871 -2  0.70710678118654757 -0.49999999999999978 0.86602540378443871 0  1 -0.49999999999999978 0.86602540378443871 2  0.70710678118654757 -3.0616169978683818e-17 5.3028761936245346e-17 2  1 
-1.224646799147353e-16 1.4997597826618573e-32 -2  0.5 -1.9999999999999996 2.4492935982947059e-16 -2  0.35355339059327379 -1.9999999999999996 2.4492935982947059e-16 0  0.5 -1.9999999999999996 2.4492935982947059e-16 2  0.35355339059327379 -1.224646799147353e-16 1.4997597826618573e-32 2  0.5 
-3.0616169978683855e-17 -5.3028761936245333e-17 -2  1 -0.50000000000000044 -0.86602540378443849 -2  0.70710678118654757 -0.50000000000000044 -0.86602540378443849 0  1 -0.50000000000000044 -0.86602540378443849 2  0.70710678118654757 -3.0616169978683855e-17 -5.3028761936245333e-17 2  1 
6.1232339957367562e-17 -1.0605752387249072e-16 -2  0.5 0.99999999999999845 -1.7320508075688776 -2  0.35355339059327379 0.99999999999999845 -1.7320508075688776 0  0.5 0.99999999999999845 -1.7320508075688776 2  0.35355339059327379 6.1232339957367562e-17 -1.0605752387249072e-16 2  0.5 

0 2
2.0943951023931953 2
4.1887902047863905 2
6.2831853071795862 2

-1.5707963267948966 3
0 2
1.5707963267948966 3

9 1 1 1 0 2 2 6 5 4 3 6.123233995736766e-17 0 -1  1 1 0 -1  0.70710678118654757 1 0 0  1 1 0 1  0.70710678118654757 6.123233995736766e-17 0 1  1 
6.123233995736766e-17 1.0605752387249065e-16 -1  0.5 1 1.7320508075688767 -1  0.35355339059327379 1 1.7320508075688767 0  0.5 1 1.7320508075688767 1  0.35355339059327379 6.123233995736766e-17 1.0605752387249065e-16 1  0.5 
-3.0616169978683818e-17 5.3028761936245346e-17 -1  1 -0.49999999999999978 0.86602540378443871 -1  0.70710678118654757 -0.49999999999999978 0.86602540378443871 0  1 -0.49999999999999978 0.86602540378443871 1  0.70710678118654757 -3.0616169978683818e-17 5.3028761936245346e-17 1  1 
-1.224646799147353e-16 1.4997597826618573e-32 -1  0.5 -1.9999999999999996 2.4492935982947059e-16 -1  0.35355339059327379 -1.9999999999999996 2.4492935982947059e-16 0  0.5 -1.9999999999999996 2.4492935982947059e-16 1  0.35355339059327379 -1.224646799147353e-16 1.4997597826618573e-32 1  0.5 
-3.0616169978683855e-17 -5.3028761936245333e-17 -1  1 -0.50000000000000044 -0.86602540378443849 -1  0.70710678118654757 -0.50000000000000044 -0.86602540378443849 0  1 -0.50000000000000044 -0.86602540378443849 1  0.70710678118654757 -3.0616169978683855e-17 -5.3028761936245333e-17 1  1 
6.1232339957367562e-17 -1.0605752387249072e-16 -1  0.5 0.99999999999999845 -1.7320508075688776 -1  0.35355339059327379 0.99999999999999845 -1.7320508075688776 0  0.5 0.99999999999999845 -1.7320508075688776 1  0.35355339059327379 6.1232339957367562e-17 -1.0605752387249072e-16 1  0.5 

0 2
2.0943951023931953 2
4.1887902047863905 2
6.2831853071795862 2

-1.5707963267948966 3
0 2
1.5707963267948966 3

Triangulations 0

TShapes 9
Ve
2e-07
6.12323399573677e-17 -1.49975978266186e-32 2
0 0

0101101
*
Ed
 1e-07 1 1 1
2  1 2 0 0 6.28318530717959
2  2 1 0 0 6.28318530717959
0

0101000
+9 0 -9 0 *
Ve
2e-07
6.12323399573677e-17 -1.49975978266186e-32 -2
0 0

0101101
*
Ed
 2e-07 1 1 0
1  1 0 4.71238898038469 7.85398163397448
3  3 4CN 1 0 4.71238898038469 7.85398163397448
0

0101000
-9 0 +7 0 *
Ed
 1e-07 1 1 1
2  5 2 0 0 6.28318530717959
2  6 1 0 0 6.28318530717959
0

0101000
+7 0 -7 0 *
Wi

0101100
-8 0 +6 0 +5 0 -6 0 *
Fa
0  2e-07 1 0

0111000
+4 0 *
Sh

0101100
+3 0 *
So

1100000
+2 0 *

+1 0 